<svg width="398" height="398" viewBox="0 0 398 398" fill="none" xmlns="http://www.w3.org/2000/svg">
<g clip-path="url(#clip0_3415_39181)">
<path fill-rule="evenodd" clip-rule="evenodd" d="M198.997 47.2861C115.175 47.2861 47.2832 115.178 47.2832 199C47.2832 266.133 90.7113 322.836 151.018 342.939C158.603 344.266 161.448 339.715 161.448 335.732C161.448 332.129 161.258 320.181 161.258 307.475C123.14 314.492 113.279 298.183 110.244 289.649C108.538 285.287 101.142 271.823 94.6938 268.219C89.3838 265.375 81.7981 258.358 94.5041 258.168C106.452 257.979 114.986 269.168 117.83 273.719C131.484 296.666 153.293 290.218 162.017 286.235C163.344 276.374 167.327 269.737 171.689 265.944C137.932 262.151 102.659 249.066 102.659 191.035C102.659 174.536 108.538 160.882 118.209 150.262C116.692 146.469 111.382 130.918 119.727 110.058C119.727 110.058 132.433 106.075 161.448 125.608C173.585 122.195 186.481 120.488 199.376 120.488C212.272 120.488 225.168 122.195 237.305 125.608C266.32 105.886 279.026 110.058 279.026 110.058C287.37 130.918 282.06 146.469 280.543 150.262C290.215 160.882 296.094 174.346 296.094 191.035C296.094 249.255 260.631 262.151 226.874 265.944C232.374 270.685 237.115 279.788 237.115 294.011C237.115 314.303 236.926 330.612 236.926 335.732C236.926 339.715 239.77 344.456 247.356 342.939C277.474 332.771 303.645 313.415 322.186 287.594C340.726 261.773 350.703 230.788 350.711 199C350.711 115.178 282.819 47.2861 198.997 47.2861Z" fill="white"/>
</g>
<defs>
<clipPath id="clip0_3415_39181">
<rect width="303.428" height="303.428" fill="white" transform="translate(47.2832 47.2861)"/>
</clipPath>
</defs>
</svg>
