<svg width="398" height="398" viewBox="0 0 398 398" fill="none" xmlns="http://www.w3.org/2000/svg">
<path d="M198.997 69.8623C270.318 69.8623 328.135 127.679 328.135 199C328.135 220.224 323.013 240.252 313.94 257.917C313.001 259.744 312.739 261.852 313.271 263.837L327.285 316.136C328.879 322.085 323.435 327.528 317.487 325.934L265.995 312.137C263.961 311.592 261.8 311.881 259.944 312.876C241.79 322.613 221.039 328.138 198.997 328.138C127.676 328.138 69.8594 270.321 69.8594 199C69.8594 127.679 127.676 69.8623 198.997 69.8623Z" fill="white"/>
<path d="M147.535 241.581C150.923 238.745 155.94 239.237 159.13 242.294C183.648 265.803 219.309 266.096 243.583 242.467C246.749 239.385 251.76 238.839 255.178 241.639L266.008 250.51C269.425 253.309 269.941 258.386 266.885 261.576C230.056 300.018 172.635 299.062 136.037 261.642C132.948 258.483 133.411 253.403 136.799 250.567L147.535 241.581Z" fill="#572DFF"/>
</svg>
