<svg width="375" height="105" viewBox="0 0 375 105" fill="none" xmlns="http://www.w3.org/2000/svg">
<path d="M135.446 73.3528C136.344 72.5688 137.032 71.5726 137.446 70.455C137.821 69.5 138.026 68.4869 138.053 67.4613C138.076 66.7023 137.962 65.9454 137.717 65.2269C135.638 59.5841 124.717 33.3691 124.717 33.3691H132.297L141.171 55.4819C141.376 55.9969 141.708 56.4813 142.179 56.4813C142.651 56.4813 142.974 56.1496 143.201 55.4819L151.73 33.3691H159.245L143.402 72.4014C142.319 75.2031 140.909 77.2572 139.171 78.5635C137.433 79.8698 135.277 80.5244 132.704 80.5273H128.236V74.5878H131.961C133.24 74.6339 134.488 74.1942 135.455 73.3571L135.446 73.3528Z" fill="white"/>
<path d="M178.82 60.7973C180.33 60.2023 181.636 59.1839 182.58 57.8646C183.513 56.4687 183.987 54.8163 183.934 53.1383V52.8023C183.948 52.5723 183.909 52.3422 183.821 52.1291C183.734 51.916 183.599 51.7255 183.427 51.5716C183.208 51.4173 182.958 51.3108 182.695 51.2589C182.432 51.207 182.161 51.211 181.899 51.2705L173.777 52.3397C171.746 52.6059 170.139 53.1383 168.973 53.9369C168.407 54.3139 167.948 54.8315 167.642 55.4389C167.336 56.0463 167.193 56.7227 167.227 57.402C167.195 58.0363 167.325 58.6682 167.604 59.2389C167.882 59.8096 168.301 60.3007 168.821 60.6664C169.882 61.4213 171.441 61.7966 173.458 61.7966C175.302 61.8291 177.133 61.4892 178.842 60.7973H178.82ZM163.314 64.7904C162.237 63.9632 161.371 62.8921 160.789 61.6652C160.207 60.4384 159.924 59.0909 159.965 57.7337C159.933 56.3428 160.229 54.964 160.829 53.7086C161.429 52.4532 162.316 51.3564 163.419 50.5068C165.719 48.6651 168.789 47.5014 172.628 47.0155L182.174 45.9507C182.686 45.9152 183.173 45.7163 183.563 45.3834C183.707 45.2406 183.82 45.0697 183.895 44.8812C183.97 44.6927 184.006 44.4908 183.999 44.288C184.036 43.2182 183.751 42.1621 183.183 41.255C182.62 40.4139 181.836 39.7447 180.916 39.3217C179.865 38.8406 178.719 38.6019 177.563 38.6234H174.314C172.614 38.5636 170.944 39.0804 169.576 40.0897C168.947 40.5802 168.437 41.207 168.085 41.9229C167.734 42.6388 167.549 43.425 167.545 44.2225H160.17C160.268 42.0279 161.029 39.9145 162.353 38.1608C163.687 36.4082 165.462 35.0408 167.497 34.1982C169.68 33.2732 172.03 32.8067 174.401 32.8279H177.585C180.002 32.7823 182.395 33.3071 184.571 34.3597C186.543 35.3315 188.216 36.8164 189.414 38.6583C190.63 40.579 191.254 42.8144 191.209 45.0866V66.9375H185.279V64.2449C185.287 63.9874 185.211 63.7343 185.061 63.5248C184.984 63.4178 184.886 63.3283 184.772 63.2621C184.658 63.1959 184.532 63.1545 184.401 63.1408C184.152 63.1341 183.904 63.1844 183.677 63.2881C183.45 63.3917 183.249 63.5458 183.091 63.7387C181.77 64.9183 180.228 65.8245 178.554 66.4051C176.582 67.127 174.497 67.4877 172.397 67.4699C168.56 67.4699 165.524 66.5811 163.288 64.8035L163.314 64.7904Z" fill="white"/>
<path d="M318.627 60.7973C320.137 60.2023 321.443 59.1839 322.387 57.8646C323.322 56.4696 323.795 54.8165 323.741 53.1383V52.8023C323.755 52.5722 323.717 52.3418 323.629 52.1286C323.542 51.9153 323.406 51.7249 323.234 51.5716C323.015 51.4174 322.767 51.3109 322.504 51.2591C322.242 51.2072 321.971 51.2111 321.71 51.2705L313.583 52.3397C311.546 52.6074 309.945 53.1398 308.78 53.9369C308.214 54.3139 307.755 54.8315 307.449 55.4389C307.143 56.0463 306.999 56.7227 307.033 57.402C307.002 58.0363 307.132 58.6682 307.411 59.2389C307.689 59.8096 308.108 60.3007 308.627 60.6664C309.688 61.4213 311.247 61.7966 313.265 61.7966C315.108 61.8291 316.94 61.4892 318.649 60.7973H318.627ZM303.121 64.7904C302.043 63.9632 301.178 62.8921 300.596 61.6652C300.013 60.4384 299.731 59.0909 299.771 57.7337C299.74 56.3428 300.036 54.964 300.636 53.7086C301.236 52.4532 302.123 51.3564 303.226 50.5068C305.525 48.6651 308.595 47.5014 312.435 47.0155L321.981 45.9507C322.493 45.9152 322.979 45.7163 323.369 45.3834C323.514 45.2411 323.628 45.0702 323.703 44.8816C323.778 44.693 323.813 44.4909 323.806 44.288C323.842 43.2189 323.559 42.1633 322.994 41.255C322.428 40.4155 321.642 39.7469 320.723 39.3217C319.673 38.8409 318.529 38.6023 317.374 38.6234H314.121C312.421 38.5636 310.751 39.0804 309.383 40.0897C308.753 40.5802 308.244 41.207 307.892 41.9229C307.54 42.6388 307.356 43.425 307.352 44.2225H299.972C300.071 42.0279 300.832 39.9145 302.156 38.1608C303.489 36.4082 305.264 35.0408 307.3 34.1982C309.483 33.2732 311.833 32.8067 314.204 32.8279H317.374C319.791 32.7823 322.185 33.3071 324.361 34.3597C326.332 35.3303 328.004 36.8156 329.199 38.6583C330.418 40.5777 331.044 42.8137 330.998 45.0866V66.9375H325.116V64.2449C325.122 63.9884 325.047 63.7366 324.902 63.5248C324.824 63.4172 324.724 63.3273 324.609 63.2611C324.494 63.1949 324.366 63.1539 324.234 63.1408C323.989 63.1377 323.746 63.1899 323.524 63.2934C323.302 63.3969 323.106 63.5491 322.95 63.7387C321.631 64.9192 320.09 65.8256 318.417 66.4051C316.444 67.1266 314.357 67.4873 312.256 67.4699C308.419 67.4699 305.383 66.5811 303.147 64.8035L303.121 64.7904Z" fill="white"/>
<path d="M203.654 33.3514V35.2192C203.654 35.9305 203.89 36.3844 204.366 36.5851C204.842 36.7859 205.462 36.5852 206.226 35.9524C207.256 34.9944 208.448 34.2274 209.746 33.6874C211.094 33.1096 212.546 32.8126 214.012 32.8146H217.191C219.316 32.804 221.401 33.3809 223.218 34.4817C225.063 35.5891 226.573 37.1777 227.584 39.077C228.66 41.0894 229.207 43.3418 229.174 45.6232V66.9373H222.065V46.8756C222.084 45.5084 221.796 44.1542 221.222 42.9131C220.692 41.7766 219.859 40.8074 218.816 40.1113C217.772 39.4237 216.546 39.0649 215.296 39.0814H212.384C210.783 39.0597 209.213 39.5238 207.881 40.4124C206.534 41.32 205.457 42.5745 204.764 44.0433C204.023 45.5689 203.642 47.2441 203.65 48.9398V66.9242H196.541V33.3514H203.654Z" fill="white"/>
<path d="M257.347 59.9333C258.769 58.9022 259.892 57.5121 260.6 55.9053C261.411 54.0945 261.815 52.1282 261.783 50.1447C261.817 48.1707 261.413 46.2138 260.6 44.4146C259.881 42.813 258.76 41.424 257.347 40.3822C256.026 39.4038 254.423 38.8788 252.779 38.8854H250.159C248.519 38.8761 246.919 39.3897 245.591 40.3517C244.174 41.375 243.052 42.7539 242.338 44.3492C241.557 46.1817 241.155 48.1529 241.155 50.1447C241.155 52.1364 241.557 54.1077 242.338 55.9402C243.054 57.5339 244.176 58.9123 245.591 59.9377C246.92 60.8983 248.52 61.4105 250.159 61.3996H252.779C254.419 61.4105 256.019 60.8983 257.347 59.9377V59.9333ZM241.827 65.2269C239.343 63.7394 237.317 61.5968 235.971 59.0343C234.568 56.2794 233.836 53.2318 233.836 50.1403C233.836 47.0488 234.568 44.0012 235.971 41.2463C237.319 38.6787 239.35 36.533 241.84 35.0459C244.331 33.5589 247.184 32.7883 250.085 32.8193H252.862C255.764 32.7875 258.618 33.5577 261.109 35.0448C263.6 36.5319 265.632 38.678 266.98 41.2463C268.423 43.9862 269.156 47.0442 269.111 50.1403C269.156 53.2323 268.436 56.2875 267.015 59.0343C265.68 61.6043 263.651 63.7495 261.159 65.2269C258.65 66.7168 255.78 67.4896 252.862 67.4613H250.085C247.179 67.4923 244.321 66.719 241.827 65.2269Z" fill="white"/>
<path d="M281.16 20.2988H274.051V66.9246H281.16V20.2988Z" fill="white"/>
<path d="M295.173 20.2988V27.2813H287.312V20.2988H295.173ZM294.836 33.3561V71.0573C294.836 74.1646 294.091 76.5183 292.601 78.1184C291.11 79.7186 288.988 80.5187 286.234 80.5187H280.072V74.5879H284.068C285.334 74.5879 286.248 74.2329 286.81 73.523C287.374 72.8117 287.657 71.7207 287.657 70.2587V33.3561H294.836Z" fill="white"/>
<path d="M97.8946 29.9209C100.162 30.6574 102.377 31.5468 104.523 32.583C105.021 32.823 105.187 32.4303 105.074 32.0986C104.348 29.8999 103.473 27.7535 102.453 25.6747C101.676 24.0866 100.392 22.8028 98.8028 22.0263C96.7227 21.0075 94.5751 20.1326 92.375 19.4079C92.0387 19.2944 91.637 19.4341 91.8903 19.9577C92.9234 22.1048 93.8133 24.3179 94.554 26.5824C94.8104 27.3614 95.2462 28.0694 95.8265 28.6493C96.4067 29.2291 97.1151 29.6647 97.8946 29.9209Z" fill="white"/>
<path d="M79.9047 69.578C77.4593 69.7089 76.8829 68.3211 76.9266 66.6715C77.0096 63.3374 77.0663 59.8068 77.0969 56.1367C77.0969 54.3648 77.9135 52.9378 80.3196 52.916C84.289 52.8811 88.0924 52.8156 91.6731 52.7239C92.8871 52.6934 93.8914 53.2607 93.8172 54.906C93.6949 57.6117 93.4635 60.2432 93.136 62.7831C92.9439 64.2538 93.6076 65.3056 95.4285 64.9652C98.5353 64.351 101.599 63.5346 104.599 62.5213C105.269 62.2871 105.864 61.8757 106.319 61.3309C106.774 60.7861 107.073 60.1282 107.184 59.4272C107.665 56.3594 107.906 53.2587 107.904 50.1535C107.904 48.7439 107.166 48.2508 106.158 48.1853C104.07 48.0544 101.791 47.9322 99.3019 47.8318C97.8303 47.7664 96.6818 47.2296 96.5683 45.1261C96.3501 40.9033 95.8026 36.704 94.9307 32.5663C94.7783 31.8188 94.4114 31.1319 93.8748 30.5894C93.3381 30.0469 92.6551 29.6724 91.9089 29.5114C87.8333 28.6499 83.6975 28.1027 79.5379 27.8749C77.9571 27.7876 76.7301 26.9454 76.6384 24.9379C76.5292 22.542 76.4157 20.312 76.2934 18.2783C76.2789 18.0344 76.2165 17.7958 76.1097 17.576C76.0028 17.3562 75.8537 17.1596 75.6708 16.9975C75.4879 16.8354 75.2748 16.7109 75.0437 16.6311C74.8126 16.5514 74.568 16.5179 74.324 16.5327C69.8009 16.525 65.292 17.0405 60.8875 18.0688C60.0839 18.2572 59.336 18.6319 58.7041 19.1626C58.0722 19.6933 57.5741 20.3651 57.25 21.1237C56.2811 23.4183 55.4599 25.7724 54.7915 28.1717C54.6322 28.7417 54.3288 29.2611 53.9105 29.6799C53.4921 30.0988 52.973 30.403 52.4029 30.5632C50.7959 31.017 49.2545 31.5145 47.7785 32.0557C47.194 32.2715 46.6712 32.6269 46.2556 33.0909C45.8401 33.5549 45.5443 34.1134 45.3942 34.7178C44.7688 37.1527 44.3078 39.6269 44.0144 42.1236C43.8746 43.267 44.7785 43.83 45.7043 43.686C47.8003 43.3586 49.8309 43.0968 52.2282 42.8393C52.9979 42.7587 53.7166 42.4166 54.2642 41.8701C54.8118 41.3236 55.1552 40.6059 55.2369 39.8368C55.4116 38.1552 55.627 36.5114 55.8832 34.9054C56.0095 34.1078 56.385 33.3705 56.956 32.799C57.527 32.2276 58.2642 31.8513 59.0622 31.724C62.1641 31.2344 65.2889 30.9023 68.4245 30.729C71.0446 30.585 71.7433 32.0906 71.6996 33.9017C71.621 37.1704 71.5642 40.6224 71.5337 44.2096C71.5337 45.9553 70.7651 47.3518 68.3721 47.3692C63.7521 47.4085 59.3548 47.4914 55.2719 47.6093C53.3854 47.666 51.8701 48.4821 51.9007 51.1005C51.9463 55.664 52.3522 60.2168 53.1147 64.7164C53.3418 66.0256 52.9618 67.3698 50.8265 66.8199C49.3942 66.4329 48.0099 66.0111 46.6737 65.5543C45.7043 65.227 45.4641 65.9122 45.6344 66.5362C46.438 69.5319 47.5001 72.4523 48.809 75.2644C49.3393 76.4069 50.272 77.3142 51.4291 77.813C53.5151 78.7033 55.6564 79.4583 57.8395 80.0736C59.3504 80.51 59.477 79.4975 59.1714 78.6596C58.5295 76.8878 57.94 75.0025 57.4247 73.0125C57.1583 71.9782 57.3548 70.8698 59.1102 71.1971C62.5163 71.805 65.9565 72.2029 69.4114 72.3885C70.9048 72.4583 71.8612 72.934 71.9354 74.7712C72.014 76.7525 72.1101 78.6204 72.2061 80.366C72.2716 81.4526 72.6996 82.308 74.2716 82.308C77.6139 82.3122 80.9511 82.0437 84.2497 81.505C84.9066 81.3972 85.5206 81.1092 86.0233 80.6731C86.5261 80.2369 86.8977 79.6698 87.0968 79.0349C87.9459 76.388 88.6457 73.6955 89.1928 70.9701C89.4286 69.7875 89.171 68.6354 87.2365 68.8885C84.8697 69.2245 82.3545 69.4427 79.9047 69.578Z" fill="white"/>
</svg>
