<svg width="375" height="105" viewBox="0 0 375 105" fill="none" xmlns="http://www.w3.org/2000/svg">
<path d="M170.357 52.9788C173.536 52.6195 176.753 53.0029 179.767 54.0999C183.548 55.4866 186.346 58.0565 188.194 61.7035C189.347 63.9633 190.069 66.4274 190.319 68.9632C190.53 71.1057 189.641 72.807 187.921 74.0482C186.897 74.7829 185.729 75.0347 184.5 75.0394H179.381L176.755 75.0355H168.775C168.024 75.0355 168.097 75.0789 168.142 75.7005C168.18 76.8572 168.409 77.9992 168.819 79.0775C168.996 79.5297 169.223 79.9594 169.497 80.3578C169.86 80.8995 170.329 81.3581 170.873 81.7054C171.418 82.0526 172.026 82.2809 172.661 82.3753C174.585 82.7059 176.561 82.3539 178.262 81.3773C178.784 81.07 179.286 80.7291 179.767 80.3578C180.131 80.085 180.502 79.8217 180.877 79.5628C183.137 78.0052 186.315 79.0796 187.35 81.7835C187.746 82.7665 187.802 83.8589 187.51 84.8792C187.217 85.8995 186.593 86.7875 185.74 87.3958C183.974 88.6722 181.996 89.6118 179.902 90.1693C178.152 90.6284 176.353 90.8724 174.546 90.8968C172.237 90.9727 169.929 90.7287 167.685 90.1712C164.713 89.4039 162.049 88.0381 159.807 85.8704C158.039 84.1789 156.678 82.0916 155.829 79.7728C153.92 74.561 153.862 69.3285 155.912 64.1468C157.084 61.1079 159.052 58.4577 161.6 56.4876C164.148 54.5175 167.178 53.3033 170.357 52.9788ZM132.158 52.9622C134.938 52.6907 137.743 52.9752 140.417 53.7992C144.96 55.2044 148.187 58.1576 150.16 62.5579C151.043 64.5475 151.621 66.6643 151.875 68.8333C152.223 71.653 150.293 74.3804 147.401 74.9212C146.906 75.0106 146.405 75.0544 145.902 75.0511C143.367 75.0372 140.832 75.0314 138.299 75.0345H129.942C129.74 75.0345 129.684 75.1158 129.689 75.3285C129.713 76.7797 129.93 78.1922 130.567 79.5072C131.401 81.2264 132.735 82.2247 134.617 82.4212C135.391 82.5099 136.173 82.4969 136.943 82.3822C138.337 82.1541 139.657 81.5911 140.797 80.7406C141.31 80.3709 141.809 79.9831 142.331 79.6273C142.844 79.2553 143.432 79.0035 144.051 78.89C145.076 78.7535 146.117 78.9742 147.005 79.5169C147.892 80.0597 148.575 80.8929 148.942 81.8812C149.31 82.8695 149.341 83.9554 149.031 84.9642C148.721 85.9729 148.088 86.8455 147.234 87.4408C145.332 88.7901 143.197 89.7601 140.943 90.2982C139.353 90.6671 137.729 90.8655 136.098 90.89C134.016 90.9585 131.933 90.7728 129.894 90.3372C127.528 89.8373 125.282 88.8628 123.286 87.471C120.409 85.4325 118.424 82.6888 117.222 79.3421C116.636 77.6747 116.256 75.9389 116.092 74.1751C115.787 71.3592 116.059 68.5087 116.89 65.806C118.386 60.9918 121.234 57.2914 125.627 54.9085C127.655 53.8199 129.876 53.1579 132.158 52.9622ZM297.256 53.3665C299.054 53.3475 300.787 54.0591 302.071 55.346C303.356 56.6328 304.088 58.3891 304.107 60.2279V88.888C304.107 89.99 304.235 89.8349 303.202 89.8372H292.061C291.566 89.8372 291.559 89.8375 291.557 89.3177V84.1566L291.567 83.2708C291.338 83.4549 291.155 83.6929 291.034 83.9642C289.32 86.6834 286.798 88.7685 283.838 89.9115C282.499 90.4326 281.092 90.7447 279.662 90.8363C278.085 90.9631 276.498 90.8526 274.952 90.5081C271.734 89.7432 269.512 87.7807 268.229 84.6839C267.581 83.0393 267.172 81.3066 267.013 79.5413C266.893 78.3659 266.838 77.184 266.848 76.0023V60.7484C266.833 60.1583 266.876 59.5676 266.979 58.9867C267.319 57.2982 268.261 55.7989 269.621 54.7806C270.982 53.7623 272.664 53.2973 274.341 53.4759C276.018 53.6545 277.57 54.4643 278.696 55.7474C279.822 57.0305 280.442 58.6962 280.435 60.4203C280.448 61.6775 280.435 62.9374 280.435 64.1947V72.5912C280.436 73.9791 280.643 75.3589 281.047 76.6839C281.232 77.2976 281.489 77.886 281.814 78.4359C282.083 78.9012 282.425 79.3181 282.828 79.6683C283.401 80.178 284.12 80.4849 284.877 80.5433C285.634 80.6016 286.39 80.4078 287.031 79.9915C287.707 79.542 288.285 78.9553 288.729 78.2679C289.582 76.9609 290.15 75.4806 290.393 73.929C290.482 73.3559 290.533 72.7774 290.546 72.1976V60.3714C290.527 58.5325 291.224 56.7613 292.483 55.4476C293.741 54.1339 295.458 53.3856 297.256 53.3665ZM110.677 52.8626C112.711 52.902 114.32 53.7638 115.359 55.5755C115.983 56.6152 116.238 57.8431 116.081 59.0521C115.925 60.2608 115.367 61.3781 114.501 62.2162C114.072 62.6482 113.614 63.05 113.131 63.4183C111.235 64.7794 109.259 64.8049 107.243 63.7025C106.808 63.4446 106.404 63.1338 106.041 62.7777C105.521 62.2891 104.884 61.9483 104.194 61.7904C102.995 61.5271 101.962 61.881 101.063 62.6898C100.52 63.1908 100.078 63.7966 99.7648 64.472C99.1506 65.7969 98.7745 67.2239 98.6534 68.6849C98.5613 69.6062 98.5187 70.5323 98.5265 71.4583V89.0238C98.5265 89.717 98.5699 89.8371 98.2208 89.8538H85.6788C84.9082 89.8538 84.9366 89.9186 84.9366 89.1097V59.5257C84.9165 58.3915 85.1757 57.2703 85.6896 56.265C86.3438 55.0157 87.3839 54.0223 88.6476 53.4408C89.9112 52.8592 91.3277 52.7215 92.6759 53.0492C94.0239 53.3768 95.228 54.1517 96.1007 55.2523C96.9734 56.3531 97.4663 57.7184 97.5011 59.1351C97.5079 59.4009 97.503 59.6806 97.503 60.0619C97.7323 59.9327 97.9218 59.7406 98.0499 59.5072C99.3441 57.765 100.932 56.273 102.739 55.1019C105.113 53.5743 107.873 52.7957 110.677 52.8626ZM199.494 42.596C200.756 41.9295 202.191 41.6845 203.597 41.8949C205.003 42.1053 206.309 42.7611 207.331 43.7699C208.354 44.7786 209.041 46.0899 209.297 47.5189C209.377 48.0253 209.414 48.5382 209.405 49.0511C209.419 50.2575 209.405 51.4639 209.405 52.6703C209.405 52.8504 209.406 53.0305 209.426 53.2083C209.428 53.2603 209.449 53.3095 209.485 53.346C209.522 53.3825 209.57 53.4044 209.62 53.4056C209.794 53.4195 209.97 53.4212 210.147 53.4212H213.537C214.091 53.4087 214.641 53.5203 215.149 53.7474C215.656 53.9745 216.108 54.3123 216.475 54.7367C217.605 56.0217 217.881 57.5098 217.243 59.0999C216.983 59.832 216.512 60.4666 215.893 60.9203C215.273 61.3738 214.534 61.6261 213.773 61.6429C212.622 61.7122 211.465 61.663 210.31 61.6722C209.345 61.6722 209.405 61.5387 209.405 62.5579C209.405 67.3074 209.442 72.0569 209.39 76.804C209.365 79.0691 210.726 80.7518 212.825 81.3597C213.454 81.5405 214.105 81.6276 214.758 81.6185H215.943C215.962 81.6207 215.981 81.6256 215.999 81.6322C216.035 81.6452 216.066 81.6663 216.093 81.6937C216.119 81.7212 216.139 81.7547 216.151 81.7913C216.164 81.8278 216.168 81.8664 216.163 81.9046V89.6038C216.163 89.6361 216.157 89.6681 216.145 89.6976C216.132 89.7273 216.112 89.7539 216.089 89.7757C216.066 89.7975 216.038 89.8144 216.008 89.8245C215.978 89.8346 215.946 89.8384 215.915 89.8353H215.614C212.979 89.8353 210.344 89.8675 207.704 89.8236C205.923 89.8182 204.153 89.5243 202.461 88.9525C201.119 88.5092 199.889 87.7688 198.859 86.7845C197.466 85.4255 196.67 83.7402 196.243 81.8519C195.948 80.4979 195.805 79.1132 195.817 77.7259C195.821 75.3379 195.821 72.9499 195.818 70.5619V62.012C195.818 61.7233 195.755 61.6746 195.447 61.6654C195.14 61.6561 194.896 61.6656 194.62 61.6517C193.703 61.6208 192.823 61.2705 192.127 60.6585C191.431 60.0463 190.96 59.2087 190.793 58.2855C190.626 57.3622 190.772 56.408 191.207 55.5814C191.643 54.7548 192.342 54.1055 193.188 53.7406C193.627 53.548 194.098 53.4434 194.575 53.4329C194.876 53.4329 195.179 53.4331 195.48 53.4193C195.78 53.4054 195.818 53.3494 195.818 53.0374V48.8773C195.809 47.744 196.063 46.6246 196.56 45.6117C197.206 44.3176 198.232 43.2627 199.494 42.596ZM222.124 56.1644C223.919 53.8534 226.28 52.9591 229.073 53.6224C231.867 54.2857 233.528 56.1648 234.186 58.9798C234.29 59.4816 234.337 59.9942 234.325 60.5072C234.312 65.2529 234.309 70.0005 234.315 74.7494V89.4994C234.297 89.9056 234.173 89.8392 233.451 89.8392H221.564C220.66 89.8392 220.736 89.978 220.736 88.9613V60.5443C220.736 58.9265 221.139 57.4355 222.124 56.1644ZM312.377 37.7826C313.616 37.1979 314.998 37.0087 316.344 37.2386C317.689 37.4686 318.936 38.1069 319.922 39.0716C320.907 40.0363 321.586 41.2823 321.869 42.6468C321.967 43.1504 322.011 43.6638 322 44.1771C321.993 51.5915 321.99 59.009 321.991 66.4281V88.9183C321.991 89.9513 322.102 89.8431 321.126 89.8431H308.781C308.488 89.8315 308.447 89.7873 308.436 89.473V44.3392C308.401 42.998 308.735 41.6734 309.399 40.516C310.1 39.3197 311.138 38.3672 312.377 37.7826ZM260.336 37.1331C261.401 37.1194 262.429 37.5387 263.192 38.2992C263.954 39.0596 264.39 40.0987 264.403 41.1878C264.417 42.2771 264.006 43.3278 263.263 44.1078C262.519 44.8875 261.503 45.3331 260.439 45.347C259.962 45.3497 259.487 45.4129 259.026 45.5345C257.322 46.0292 256.413 47.4297 256.212 48.9828C256.184 49.2637 256.172 49.5461 256.178 49.8285V53.0775C256.196 53.4635 256.328 53.4097 257.082 53.4115H260.318C260.95 53.3981 261.574 53.544 262.137 53.8363C262.7 54.1285 263.184 54.5583 263.546 55.0872C264.474 56.4044 264.615 57.8463 263.926 59.3089C263.636 59.9851 263.161 60.5624 262.561 60.972C261.96 61.3816 261.257 61.6067 260.535 61.6204C259.36 61.6828 258.178 61.6418 256.998 61.6488C256.119 61.6487 256.178 61.5448 256.178 62.4622L256.157 75.7982V89.5843C256.159 89.6158 256.155 89.6474 256.145 89.6771C256.134 89.7067 256.118 89.7342 256.097 89.7572C256.076 89.7801 256.05 89.7984 256.022 89.8109C255.993 89.8233 255.963 89.8295 255.932 89.8294H243.276C242.566 89.8294 242.598 89.8892 242.598 89.1126V61.9261C242.599 61.8877 242.592 61.8492 242.577 61.8138C242.563 61.7783 242.54 61.7458 242.512 61.7201C242.484 61.6945 242.451 61.6756 242.415 61.6644C242.379 61.6532 242.341 61.6502 242.304 61.6556C242.003 61.6556 241.702 61.6552 241.4 61.639C240.521 61.6133 239.674 61.294 238.989 60.7298C238.305 60.1655 237.819 59.387 237.608 58.514C237.396 57.641 237.47 56.7208 237.818 55.8949C238.167 55.0691 238.77 54.383 239.535 53.9408C240.104 53.6068 240.746 53.4255 241.401 53.4154H242.306C242.343 53.4208 242.382 53.4179 242.418 53.4066C242.454 53.3952 242.488 53.3759 242.516 53.3499C242.544 53.3239 242.566 53.2919 242.58 53.2562C242.595 53.2204 242.601 53.1816 242.6 53.1429V48.5208C242.594 47.0311 242.815 45.5493 243.255 44.1292C244.193 41.1801 246.089 39.1619 248.921 38.0687C250.55 37.4546 252.272 37.1422 254.008 37.1449C256.114 37.1241 258.223 37.1586 260.336 37.1331ZM136.113 61.6244C135.324 61.1259 134.374 60.9673 133.471 61.1839C132.568 61.4006 131.785 61.9752 131.295 62.7806C130.583 63.9361 130.303 65.2371 130.1 66.5589C130.095 66.5844 130.097 66.6112 130.104 66.6361C130.11 66.6606 130.122 66.6833 130.139 66.7025C130.156 66.7218 130.177 66.7375 130.2 66.7474C130.223 66.7572 130.248 66.7615 130.274 66.7601C130.447 66.7716 130.624 66.7718 130.8 66.7718L134.326 66.762H138.469C138.643 66.762 138.674 66.6494 138.65 66.4994C138.506 65.4552 138.2 64.4408 137.745 63.4945C137.387 62.7248 136.821 62.0756 136.113 61.6244ZM172.917 61.1097C171.703 61.0334 170.7 61.4286 169.949 62.4271C169.692 62.7758 169.477 63.1552 169.31 63.557C169.021 64.2401 168.81 64.9561 168.682 65.6888C168.618 66.0122 168.486 66.3284 168.571 66.6703C168.753 66.7601 168.958 66.7883 169.156 66.7494H176.454C177.265 66.7494 177.132 66.7351 177.008 66.0326C176.832 64.914 176.433 63.8438 175.837 62.889C175.139 61.826 174.192 61.1929 172.917 61.1097ZM227.507 37.1507H228.864C231.214 37.2153 233.711 39.0667 234.224 42.0042C234.475 43.4713 234.177 44.9812 233.387 46.2328C232.597 47.4843 231.375 48.3853 229.964 48.7552C229.82 48.7966 229.673 48.8286 229.526 48.8519C228.255 49.0086 226.971 49.0145 225.699 48.8685C224.366 48.6764 223.141 48.0132 222.235 46.9945C221.33 45.9758 220.801 44.6657 220.74 43.2904C220.68 41.9149 221.092 40.5608 221.904 39.4632C222.717 38.3657 223.88 37.5931 225.191 37.2796C225.58 37.1863 225.98 37.1397 226.38 37.141L227.507 37.1507Z" fill="white"/>
<path d="M58.6416 71.1554C58.5173 71.4189 58.5805 71.7032 58.5805 71.9759C58.5805 76.9066 58.5805 81.8372 58.5805 86.7678C58.5863 88.0062 58.2854 89.2259 57.7059 90.3133C57.0003 91.6282 55.9058 92.6809 54.5793 93.3208C53.2528 93.9607 51.7624 94.1548 50.3214 93.8755C48.8804 93.5961 47.5628 92.8575 46.5574 91.7655C45.552 90.6735 44.9103 89.2841 44.7242 87.7964C44.6821 87.4405 44.6602 87.0824 44.6587 86.7239C44.6587 75.1423 44.6248 63.5607 44.67 51.9791C44.6881 46.7695 46.6023 42.3296 50.2862 38.7195C52.379 36.6694 54.8311 35.1879 57.5002 34.06C60.178 32.9553 62.9767 32.1862 65.8353 31.7696C68.5673 31.3668 71.3242 31.1667 74.0844 31.171C75.8835 31.1859 77.6069 31.9133 78.8926 33.2003C80.1783 34.4874 80.9262 36.234 80.9792 38.0731C81.0321 39.9122 80.386 41.7008 79.1766 43.063C77.9672 44.4252 76.2886 45.255 74.4935 45.3782C73.7431 45.4198 72.9905 45.4198 72.2334 45.4475C69.6734 45.507 67.1297 45.8826 64.6578 46.5661C63.6163 46.8577 62.6079 47.2613 61.6497 47.7703C61.1386 48.0452 60.6549 48.3703 60.2055 48.741C59.1501 49.6123 58.5466 50.7194 58.5557 52.1316C58.5498 52.5176 58.5679 52.9036 58.6099 53.2872C58.7481 54.3154 59.2656 55.2507 60.0563 55.9012C60.9924 56.6814 62.0667 57.27 63.2204 57.6347C64.9604 58.2276 66.7834 58.5258 68.6174 58.5176C68.9677 58.5176 69.318 58.4644 69.6683 58.4413C72.6809 58.2287 75.0472 59.3889 76.5298 62.0907C77.0535 63.0469 77.3532 64.1143 77.4053 65.209C77.4575 66.3037 77.2606 67.3959 76.8302 68.3996C76.3998 69.4033 75.7476 70.2913 74.9249 70.9936C74.1022 71.696 73.1314 72.1936 72.0888 72.4474C71.4284 72.6018 70.7546 72.6878 70.0774 72.704C68.419 72.7889 66.7567 72.7425 65.1053 72.5653C63.1118 72.3344 61.1442 71.9103 59.2292 71.2987C59.0446 71.2115 58.8448 71.1628 58.6416 71.1554Z" fill="white"/>
<path d="M50.3812 30.4764C45.4769 30.5665 40.9975 26.3948 41.0043 20.8871C40.9662 19.6024 41.1809 18.323 41.6355 17.1248C42.0902 15.9266 42.7756 14.834 43.651 13.9118C44.5264 12.9896 45.5741 12.2567 46.7318 11.7565C47.8895 11.2563 49.1337 10.9991 50.3905 11C51.6473 11.0009 52.8911 11.26 54.0481 11.7619C55.2051 12.2638 56.2517 12.9983 57.1258 13.9218C58 14.8452 58.6838 15.9388 59.1368 17.1377C59.5897 18.3366 59.8025 19.6163 59.7626 20.9009C59.7604 26.4017 55.3194 30.5712 50.3812 30.4764Z" fill="white"/>
</svg>
