<svg width="375" height="105" viewBox="0 0 375 105" fill="none" xmlns="http://www.w3.org/2000/svg">
<path d="M53.9095 35.249L39.6824 61.886L25.4061 35.249H15.6738V69.742H23.2126V46.8996L35.3713 69.5946L35.4513 69.7448H43.8714L56.1072 46.901V69.7448H63.6473V35.249H53.9095Z" fill="white"/>
<path d="M108.773 35.249V41.181H123.471V69.7434H131.062V41.181H145.7V35.249H108.773Z" fill="white"/>
<path d="M257.486 62.4417C257.486 63.0297 257.276 63.8128 255.462 63.8128H238.154C236.341 63.8128 236.131 63.0297 236.131 62.4417V35.249H228.592V63.2921C228.592 67.5724 231.608 69.7476 237.554 69.7476H256.113C262.026 69.7476 265.025 67.5766 265.025 63.2921V35.249H257.486V62.4417Z" fill="white"/>
<path d="M275.046 35.2485C274.097 35.2018 273.169 35.5319 272.462 36.167C271.756 36.8021 271.329 37.6907 271.275 38.639V66.3523C271.368 67.2884 271.805 68.1568 272.502 68.7884C273.199 69.4201 274.106 69.77 275.046 69.77C275.987 69.77 276.894 69.4201 277.591 68.7884C278.288 68.1568 278.725 67.2884 278.817 66.3523V38.639C278.763 37.6907 278.337 36.8021 277.63 36.167C276.924 35.5319 275.995 35.2018 275.046 35.2485Z" fill="white"/>
<path d="M292.611 35.249H285.076V69.7433H317.096V63.8577H292.615L292.611 35.249Z" fill="white"/>
<path d="M340.579 35.249H321.688V69.7433H340.579C353.017 69.7433 359.324 65.226 359.324 56.3189V48.6749C359.324 39.765 353.017 35.249 340.579 35.249ZM351.783 49.0762V55.9161C351.783 61.2587 348.102 63.8563 340.531 63.8563H329.225V41.1361H340.531C348.109 41.1361 351.783 43.7323 351.783 49.0762Z" fill="white"/>
<path d="M179.839 65.2065L165.685 38.3141C165.127 37.38 164.336 36.6065 163.39 36.0694C162.444 35.5323 161.375 35.25 160.287 35.25C159.199 35.25 158.13 35.5323 157.184 36.0694C156.238 36.6065 155.448 37.38 154.89 38.3141L140.694 65.2079C140.453 65.6521 140.334 66.152 140.349 66.6569C140.364 67.1619 140.512 67.654 140.778 68.0833C141.13 68.6079 141.61 69.0351 142.171 69.3255C142.732 69.6158 143.358 69.76 143.99 69.7446C144.622 69.7292 145.239 69.5548 145.786 69.2374C146.332 68.9201 146.79 68.4701 147.117 67.929L160.289 42.8511L173.458 67.929C173.779 68.4698 174.233 68.9202 174.776 69.238C175.319 69.5559 175.934 69.7308 176.563 69.7464C177.192 69.7619 177.814 69.6176 178.372 69.327C178.93 69.0364 179.405 68.609 179.753 68.0847C180.019 67.6558 180.168 67.1641 180.183 66.6594C180.198 66.1547 180.08 65.655 179.84 65.2107" fill="white"/>
<path d="M160.267 59.6431C159.601 59.7139 158.971 59.9761 158.451 60.3979C157.931 60.8197 157.545 61.3832 157.338 62.02C157.132 62.6568 157.115 63.3398 157.289 63.9863C157.462 64.6327 157.82 65.2149 158.318 65.6625C158.815 66.1101 159.432 66.4039 160.093 66.5082C160.755 66.6126 161.432 66.5232 162.043 66.2507C162.655 65.9782 163.174 65.5344 163.538 64.9729C163.903 64.4114 164.097 63.7563 164.097 63.0869C164.042 62.1237 163.609 61.2212 162.891 60.5761C162.174 59.931 161.231 59.5956 160.267 59.6431Z" fill="white"/>
<path d="M77.4344 54.6961V54.2751H97.4251V48.3894H77.4344V41.1327H100.903C101.315 41.1759 101.732 41.132 102.126 41.0038C102.521 40.8756 102.884 40.6659 103.192 40.3884C103.5 40.1109 103.746 39.7717 103.915 39.3928C104.084 39.0139 104.171 38.6039 104.171 38.1892C104.171 37.7745 104.084 37.3644 103.915 36.9855C103.746 36.6067 103.5 36.2675 103.192 35.9899C102.884 35.7124 102.521 35.5027 102.126 35.3745C101.732 35.2463 101.315 35.2024 100.903 35.2456H69.8887V69.74H104.164V63.8178H77.4274L77.4344 54.6961Z" fill="white"/>
<path d="M218.573 51.1899C219.602 50.7224 220.464 49.9537 221.046 48.9854C221.629 48.0172 221.903 46.8951 221.834 45.7673V41.6976C221.834 37.416 218.82 35.2422 212.874 35.2422H185.904V69.7365H213.475C219.388 69.7365 222.387 67.5656 222.387 63.2811V56.844C222.465 55.6118 222.133 54.3887 221.443 53.3646C220.753 52.3406 219.745 51.5731 218.574 51.1814M193.445 41.125H212.273C214.086 41.125 214.295 41.9081 214.295 42.4961V47.0542C214.295 47.6422 214.086 48.4253 212.273 48.4253H193.445V41.125ZM214.847 62.477C214.847 63.065 214.638 63.8467 212.825 63.8467H193.445V54.3123H212.825C214.638 54.3123 214.847 55.0687 214.847 55.6385V62.477Z" fill="white"/>
</svg>
