<svg width="375" height="105" viewBox="0 0 375 105" fill="none" xmlns="http://www.w3.org/2000/svg">
<path d="M69.8012 30.3022C71.4216 26.5911 73.3661 22.9034 74.1221 22.1081C75.7978 20.3454 77.0684 20.2853 79.1084 21.8712C80.8449 23.2214 82.3941 27.3942 84.4633 36.2929C86.0764 43.2275 87.2405 46.611 88.2271 47.2308C88.6358 47.4869 92.1703 47.7009 96.0819 47.7063C102.737 47.7147 103.255 47.8013 104.141 49.0518C107.438 53.7043 100.432 65.8037 92.0815 69.8767C88.7404 71.5065 83.6586 72.9475 81.2147 72.9578C80.2951 72.962 79.5421 73.1646 79.5421 73.408C79.5421 73.6515 80.8303 75.6973 82.4045 77.9541C84.6945 81.2372 85.1373 82.2598 84.6203 83.072C83.7833 84.3856 82.2731 84.6651 81.3905 83.6696C81.0079 83.2379 79.5908 81.1909 78.2417 79.1204C75.6701 75.1749 71.9957 72.1937 68.8736 71.5203C64.3867 70.5524 61.8108 67.5729 63.9469 65.8211C64.5728 65.3071 65.4286 65.4292 67.4729 66.3225C76.7899 70.3961 87.8111 68.8186 94.537 62.4491C97.5708 59.5761 97.9832 57.3023 95.9371 54.7305C94.1963 52.544 91.32 51.9308 82.7852 51.9272C74.5375 51.923 73.4598 51.7054 73.4598 50.0407C73.4598 48.6538 75.6585 47.7154 78.9083 47.7154C81.5681 47.7154 81.975 47.1196 81.975 43.2233C81.975 39.0198 78.3013 26.0728 77.1079 26.0728C76.5544 26.0728 73.9676 30.9658 72.2718 35.2204C70.5396 39.5675 68.44 41.7078 65.9261 41.6903C63.3965 41.6723 62.2828 40.6683 56.8604 33.5161C54.3234 30.1705 51.8114 27.2674 51.278 27.0648C50.6004 26.8081 50.1162 27.1923 49.6728 28.3387C48.1887 32.1761 38.9542 59.8219 36.3424 75.8578C35.3911 81.6953 34.8334 83.072 33.418 83.072C30.8427 83.072 30.7302 81.8582 32.4022 72.1425C36.2299 49.9048 44.1592 29.8981 46.3579 24.731C47.4917 22.0671 49.7269 21.2141 52.11 22.5361C52.9591 23.0068 55.518 25.6863 57.7971 28.4902C60.0761 31.2935 62.7864 34.6234 63.8204 35.8889C65.0059 37.3396 65.9146 37.9792 66.2777 37.6203C66.5952 37.3065 68.1803 34.0139 69.8012 30.3022Z" fill="white"/>
<path d="M59.4703 51.3224C59.4703 50.0539 59.6364 48.5883 59.8395 48.0653C60.2787 46.9344 61.3777 46.8352 62.3898 47.8356C63.1532 48.59 63.3861 52.9426 62.7505 54.5796C62.5474 55.1026 61.8923 55.5307 61.295 55.5307C59.9745 55.5307 59.4703 54.3686 59.4703 51.3224Z" fill="white"/>
<path d="M58.8329 62.4623C57.94 63.0076 56.2716 62.2807 56.7308 61.5467C57.2089 60.7814 59.4703 60.749 59.4703 61.5071C59.4703 61.8185 59.1832 62.2477 58.8329 62.4623Z" fill="white"/>
<path d="M60.8778 63.1344C60.6777 62.936 60.8595 62.3613 61.2829 61.8576C62.2694 60.6822 63.1197 60.6846 63.1197 61.8617C63.1197 62.8308 61.5006 63.75 60.8778 63.1344Z" fill="white"/>
<path d="M60.3425 65.8151C59.8121 66.6634 58.8621 65.8277 58.8621 64.513C58.8621 63.8709 59.1066 63.3461 59.4052 63.3461C60.1193 63.3461 60.7871 65.1039 60.3425 65.8151Z" fill="white"/>
<path d="M328.355 75.2189C325.083 75.2189 322.321 74.6384 320.069 73.4774C317.818 72.3164 316.111 70.6981 314.95 68.6224C313.825 66.5115 313.262 64.084 313.262 61.3398C313.262 58.4901 313.772 55.9043 314.792 53.5823C315.848 51.2252 317.308 49.2022 319.172 47.5135C321.037 45.8248 323.2 44.5231 325.663 43.6084C328.161 42.6937 330.852 42.2363 333.737 42.2363C337.15 42.2363 339.665 42.9927 341.284 44.5055C342.902 46.0183 343.711 47.9181 343.711 50.2049C343.711 52.1751 343.06 54.0397 341.759 55.7987C340.492 57.5226 338.434 58.9299 335.584 60.0205C332.735 61.076 328.935 61.6213 324.186 61.6564C324.291 63.9081 324.801 65.6847 325.716 66.9864C326.666 68.253 327.844 68.8862 329.252 68.8862C329.955 68.8862 330.694 68.7279 331.468 68.4113C332.242 68.0595 332.893 67.4614 333.421 66.617C333.948 65.7375 334.212 64.5413 334.212 63.0285C336.605 63.0285 338.487 63.2924 339.859 63.8201C341.231 64.3478 341.917 65.2977 341.917 66.6698C341.917 67.9363 341.372 69.238 340.281 70.5749C339.19 71.8766 337.625 72.9849 335.584 73.8996C333.579 74.7791 331.169 75.2189 328.355 75.2189ZM324.66 57.4347C327.229 57.2236 329.287 56.7486 330.835 56.0098C332.383 55.271 333.509 54.4267 334.212 53.4768C334.916 52.5269 335.268 51.6473 335.268 50.8382C335.268 50.1345 335.057 49.5541 334.634 49.0967C334.212 48.6393 333.614 48.4107 332.84 48.4107C331.574 48.4107 330.395 48.8504 329.304 49.73C328.214 50.6095 327.264 51.7529 326.455 53.1601C325.681 54.5322 325.083 55.9571 324.66 57.4347Z" fill="white"/>
<path d="M300.241 75.2186C298.095 75.2186 296.564 74.5502 295.649 73.2133C294.735 71.8764 294.277 69.8359 294.277 67.0917C294.277 66.3177 294.365 65.1743 294.541 63.6615C294.752 62.1487 295.016 60.4249 295.333 58.4899C295.649 56.5549 296.001 54.5496 296.388 52.4739C296.775 50.363 297.145 48.3225 297.496 46.3523C297.848 44.3822 298.165 42.6231 298.446 41.0751L295.491 36.8533C297.356 35.7627 299.132 34.848 300.821 34.1092C302.51 33.3704 304.198 33.001 305.887 33.001C307.365 33.001 308.385 33.3 308.948 33.8981C309.546 34.461 309.845 35.4109 309.845 36.7478C309.845 37.9791 309.687 39.5271 309.37 41.3917C309.054 43.2212 308.667 45.2265 308.209 47.4077C307.752 49.5538 307.277 51.7702 306.784 54.057C306.327 56.3438 305.94 58.5427 305.623 60.6535C305.307 62.7644 305.148 64.6818 305.148 66.4057C305.148 67.7778 305.272 69.0091 305.518 70.0997C305.799 71.1552 306.221 71.9995 306.784 72.6328C304.322 74.3567 302.14 75.2186 300.241 75.2186Z" fill="white"/>
<path d="M282.946 38.8053C281.328 38.8053 279.991 38.4535 278.935 37.7499C277.88 37.0462 277.352 36.0963 277.352 34.9002C277.352 33.7392 277.739 32.7893 278.513 32.0505C279.287 31.2765 280.22 30.696 281.31 30.309C282.436 29.922 283.491 29.7285 284.477 29.7285C286.095 29.7285 287.432 30.0803 288.487 30.784C289.543 31.4524 290.07 32.4023 290.07 33.6336C290.07 34.6539 289.736 35.5686 289.068 36.3778C288.399 37.1518 287.52 37.7499 286.429 38.172C285.374 38.5942 284.213 38.8053 282.946 38.8053ZM279.78 75.218C277.528 75.218 275.927 74.6551 274.978 73.5293C274.028 72.4035 273.553 70.7852 273.553 68.6743C273.553 67.9003 273.658 66.8273 273.869 65.4552C274.08 64.0479 274.362 62.5 274.714 60.8113C275.066 59.0874 275.435 57.3459 275.822 55.5868C276.209 53.8278 276.578 52.1742 276.93 50.6263L273.975 46.1934C275.84 45.0676 277.616 44.1353 279.305 43.3965C280.994 42.6225 282.682 42.2355 284.371 42.2355C285.849 42.2355 286.869 42.5521 287.432 43.1854C288.03 43.8187 288.329 44.8037 288.329 46.1406C288.329 46.6683 288.188 47.5303 287.907 48.7265C287.66 49.9226 287.344 51.3299 286.957 52.9482C286.57 54.5666 286.183 56.2729 285.796 58.0671C285.409 59.8262 285.075 61.5677 284.793 63.2915C284.547 64.9803 284.424 66.4931 284.424 67.8299C284.424 68.8854 284.547 69.8353 284.793 70.6796C285.075 71.4888 285.497 72.1397 286.06 72.6322C284.09 74.3561 281.996 75.218 279.78 75.218Z" fill="white"/>
<path d="M219.522 75.2189C217.306 75.2189 215.722 74.656 214.773 73.5302C213.823 72.4044 213.348 70.786 213.348 68.6751C213.348 67.9363 213.453 66.8105 213.664 65.2977C213.875 63.7497 214.139 62.0434 214.456 60.1788C214.808 58.279 215.177 56.3792 215.564 54.4794C215.951 52.5797 216.32 50.8909 216.672 49.4133L213.928 45.1916C215.371 44.3824 216.919 43.6964 218.572 43.1335C220.261 42.5354 221.967 42.2363 223.691 42.2363C225.169 42.2363 226.259 42.6057 226.963 43.3445C227.666 44.0482 228.018 45.0157 228.018 46.247C228.018 47.1617 227.895 48.1116 227.649 49.0967C227.403 50.0818 227.121 50.9261 226.805 51.6298L227.332 51.8936C229.408 48.3403 231.589 45.8424 233.876 44.4C236.163 42.9575 238.59 42.2363 241.159 42.2363C243.023 42.2363 244.554 42.7113 245.75 43.6612C246.946 44.5759 247.544 46.0711 247.544 48.1468C247.544 49.2022 247.368 50.3632 247.016 51.6298L247.544 51.8936C249.62 48.3403 251.801 45.8424 254.088 44.4C256.374 42.9575 258.802 42.2363 261.37 42.2363C263.516 42.2363 265.117 42.764 266.172 43.8195C267.228 44.8398 267.756 46.4405 267.756 48.6217C267.756 50.5215 267.492 52.5445 266.964 54.6905C266.472 56.8014 265.961 58.9827 265.434 61.2343C264.906 63.4507 264.642 65.6495 264.642 67.8308C264.642 70.012 265.012 71.6128 265.75 72.633C263.886 74.3569 261.951 75.2189 259.945 75.2189C257.729 75.2189 256.146 74.656 255.196 73.5302C254.246 72.4044 253.771 70.786 253.771 68.6751C253.771 67.5141 253.929 66.23 254.246 64.8228C254.563 63.3803 254.932 61.9203 255.354 60.4427C255.776 58.9651 256.146 57.5754 256.462 56.2737C256.779 54.972 256.937 53.8462 256.937 52.8963C256.937 52.1575 256.797 51.577 256.515 51.1548C256.269 50.7326 255.812 50.5215 255.143 50.5215C254.193 50.5215 253.103 50.9437 251.871 51.7881C250.675 52.6324 249.497 53.8286 248.336 55.3766C247.21 56.8894 246.277 58.7012 245.539 60.8121C244.8 62.923 244.43 65.2625 244.43 67.8308C244.43 70.012 244.8 71.6128 245.539 72.633C243.674 74.3569 241.739 75.2189 239.734 75.2189C237.517 75.2189 235.934 74.656 234.984 73.5302C234.034 72.4044 233.559 70.786 233.559 68.6751C233.559 67.5141 233.718 66.23 234.034 64.8228C234.351 63.3803 234.72 61.9203 235.143 60.4427C235.565 58.9651 235.934 57.5754 236.251 56.2737C236.567 54.972 236.726 53.8462 236.726 52.8963C236.726 52.1575 236.585 51.577 236.304 51.1548C236.057 50.7326 235.6 50.5215 234.931 50.5215C233.982 50.5215 232.891 50.9437 231.66 51.7881C230.463 52.6324 229.285 53.8286 228.124 55.3766C226.998 56.8894 226.066 58.7012 225.327 60.8121C224.588 62.923 224.219 65.2625 224.219 67.8308C224.219 70.012 224.588 71.6128 225.327 72.633C223.462 74.3569 221.527 75.2189 219.522 75.2189Z" fill="white"/>
<path d="M197.327 75.2187C195.075 75.2187 193.474 74.5502 192.524 73.2133C191.574 71.8764 191.1 69.8359 191.1 67.0918C191.1 66.3178 191.187 65.2271 191.363 63.8199C191.539 62.3775 191.768 60.7767 192.049 59.0176C192.366 57.2586 192.665 55.5171 192.947 53.7932C192.208 53.9339 191.486 54.0922 190.783 54.2681C190.114 54.4441 189.481 54.6375 188.883 54.8486C188.742 54.3209 188.637 53.7932 188.566 53.2655C188.531 52.7378 188.514 52.3508 188.514 52.1045C188.514 50.2751 189.041 48.9558 190.097 48.1466C191.187 47.3022 192.489 46.8801 194.002 46.8801C194.002 46.0709 193.896 45.1738 193.685 44.1887C193.474 43.2036 193.105 42.113 192.577 40.9168C194.055 39.8262 195.532 38.9115 197.01 38.1727C198.488 37.4339 200.124 37.0645 201.918 37.0645C203.466 37.0645 204.539 37.3635 205.137 37.9616C205.735 38.5245 206.034 39.4744 206.034 40.8113C206.034 41.4797 205.964 42.2713 205.823 43.186C205.682 44.1007 205.506 45.1034 205.295 46.194C206.069 46.0885 206.808 45.9653 207.512 45.8246C208.215 45.6487 208.901 45.4728 209.57 45.2969C209.71 45.6839 209.798 46.0885 209.834 46.5107C209.904 46.8976 209.939 47.2846 209.939 47.6716C209.939 49.0789 209.499 50.3102 208.62 51.3657C207.775 52.3859 206.456 52.8961 204.662 52.8961H203.87C203.378 55.1477 202.938 57.4521 202.551 59.8092C202.164 62.1664 201.971 64.3652 201.971 66.4057C201.971 67.7778 202.094 69.0091 202.34 70.0998C202.621 71.1552 203.044 71.9996 203.606 72.6328C201.636 74.3567 199.543 75.2187 197.327 75.2187Z" fill="white"/>
<path d="M168.132 75.2189C164.86 75.2189 162.098 74.6384 159.847 73.4774C157.595 72.3164 155.889 70.6981 154.728 68.6224C153.602 66.5115 153.039 64.084 153.039 61.3398C153.039 58.4901 153.549 55.9043 154.569 53.5823C155.625 51.2252 157.085 49.2022 158.95 47.5135C160.814 45.8248 162.978 44.5231 165.44 43.6084C167.938 42.6937 170.63 42.2363 173.515 42.2363C176.927 42.2363 179.443 42.9927 181.061 44.5055C182.679 46.0183 183.489 47.9181 183.489 50.2049C183.489 52.1751 182.838 54.0397 181.536 55.7987C180.269 57.5226 178.211 58.9299 175.362 60.0205C172.512 61.076 168.712 61.6213 163.963 61.6564C164.068 63.9081 164.579 65.6847 165.493 66.9864C166.443 68.253 167.622 68.8862 169.029 68.8862C169.733 68.8862 170.471 68.7279 171.245 68.4113C172.019 68.0595 172.67 67.4614 173.198 66.617C173.726 65.7375 173.99 64.5413 173.99 63.0285C176.382 63.0285 178.264 63.2924 179.636 63.8201C181.008 64.3478 181.694 65.2977 181.694 66.6698C181.694 67.9363 181.149 69.238 180.058 70.5749C178.968 71.8766 177.402 72.9849 175.362 73.8996C173.356 74.7791 170.946 75.2189 168.132 75.2189ZM164.438 57.4347C167.006 57.2236 169.064 56.7486 170.612 56.0098C172.16 55.271 173.286 54.4267 173.99 53.4768C174.693 52.5269 175.045 51.6473 175.045 50.8382C175.045 50.1345 174.834 49.5541 174.412 49.0967C173.99 48.6393 173.391 48.4107 172.617 48.4107C171.351 48.4107 170.172 48.8504 169.082 49.73C167.991 50.6095 167.041 51.7529 166.232 53.1601C165.458 54.5322 164.86 55.9571 164.438 57.4347Z" fill="white"/>
<path d="M122.442 75.2715C120.085 75.2715 118.414 74.6031 117.429 73.2662C116.479 71.8941 116.004 69.836 116.004 67.0918C116.004 65.3328 116.285 62.6942 116.848 59.176C117.446 55.6227 118.273 50.926 119.329 45.0859L116.532 39.4393C118.185 38.3838 119.944 37.4867 121.809 36.7479C123.673 35.9739 125.538 35.5869 127.403 35.5869C128.353 35.5869 129.355 35.7628 130.411 36.1146C131.501 36.4664 132.275 36.8359 132.733 37.2228C134.07 36.6951 135.336 36.3081 136.532 36.0619C137.764 35.8156 138.907 35.6925 139.962 35.6925C142.284 35.6925 144.237 36.2554 145.82 37.3812C147.403 38.4718 148.599 39.9142 149.409 41.7085C150.253 43.5027 150.675 45.4377 150.675 47.5134C150.675 49.3428 150.323 51.1899 149.62 53.0545C148.916 54.8839 147.843 56.555 146.401 58.0678C144.958 59.5806 143.129 60.7944 140.912 61.7091C138.696 62.6238 136.075 63.0812 133.049 63.0812C132.17 63.0812 131.273 63.0284 130.358 62.9228C129.478 62.7821 128.599 62.5886 127.719 62.3424C127.508 63.6089 127.403 64.5764 127.403 65.2448C127.403 67.0391 127.526 68.5519 127.772 69.7832C128.054 71.0146 128.458 72.0524 128.986 72.8968C126.875 74.4799 124.694 75.2715 122.442 75.2715ZM130.252 56.4847C131.695 56.4847 133.067 56.1328 134.369 55.4292C135.705 54.6904 136.796 53.7053 137.64 52.474C138.485 51.2426 138.907 49.8354 138.907 48.2522C138.907 46.7394 138.467 45.4025 137.588 44.2415C136.708 43.0454 135.371 42.4473 133.577 42.4473C132.873 42.4473 132.064 42.588 131.149 42.8695C131.009 43.9249 130.798 45.2266 130.516 46.7746C130.27 48.2874 129.989 49.8706 129.672 51.5241C129.39 53.1776 129.074 54.7784 128.722 56.3263C129.215 56.4319 129.725 56.4847 130.252 56.4847Z" fill="white"/>
</svg>
