<svg width="375" height="105" viewBox="0 0 375 105" fill="none" xmlns="http://www.w3.org/2000/svg">
<g clip-path="url(#clip0_3402_38880)">
<path d="M352.76 51.0235V22.0859H357.41L370.701 43.2517V22.0859H375V51.0235H370.35L357.059 29.8577V51.0235H352.76Z" fill="white"/>
<path d="M334.172 51.5602C332.215 51.5602 330.376 51.1744 328.653 50.4027C326.931 49.6173 325.415 48.5356 324.106 47.1576C322.797 45.7796 321.77 44.188 321.026 42.3829C320.282 40.564 319.91 38.621 319.91 36.554C319.91 34.4871 320.282 32.551 321.026 30.7459C321.77 28.9269 322.797 27.3285 324.106 25.9505C325.415 24.5725 326.931 23.4977 328.653 22.726C330.376 21.9406 332.215 21.5479 334.172 21.5479C336.143 21.5479 337.989 21.9406 339.712 22.726C341.434 23.4977 342.95 24.5725 344.259 25.9505C345.568 27.3285 346.588 28.9269 347.318 30.7459C348.062 32.551 348.434 34.4871 348.434 36.554C348.434 38.621 348.062 40.564 347.318 42.3829C346.588 44.188 345.568 45.7796 344.259 47.1576C342.95 48.5356 341.434 49.6173 339.712 50.4027C337.989 51.1744 336.143 51.5602 334.172 51.5602ZM334.172 47.2609C335.55 47.2609 336.839 46.9785 338.037 46.4135C339.236 45.8485 340.29 45.0768 341.2 44.0985C342.123 43.1063 342.84 41.9695 343.35 40.688C343.873 39.3927 344.135 38.0147 344.135 36.554C344.135 35.0934 343.873 33.7154 343.35 32.4201C342.84 31.1248 342.123 29.988 341.2 29.0096C340.29 28.0175 339.236 27.2458 338.037 26.6946C336.839 26.1296 335.55 25.8471 334.172 25.8471C332.794 25.8471 331.506 26.1296 330.307 26.6946C329.108 27.2596 328.047 28.0381 327.124 29.0303C326.214 30.0086 325.498 31.1455 324.974 32.4408C324.464 33.7223 324.209 35.0934 324.209 36.554C324.209 38.0285 324.464 39.4133 324.974 40.7086C325.498 41.9902 326.214 43.127 327.124 44.1191C328.047 45.0975 329.108 45.8692 330.307 46.4341C331.506 46.9853 332.794 47.2609 334.172 47.2609Z" fill="white"/>
<path d="M310.445 51.0235V22.0859H314.745V51.0235H310.445Z" fill="white"/>
<path d="M305.265 22.0859V26.3852H296.046V51.0235H291.747V26.3852H282.549V22.0859H305.265Z" fill="white"/>
<path d="M266.555 51.5609C264.24 51.5609 262.221 50.9959 260.498 49.866C258.79 48.736 257.46 47.2203 256.509 45.3187C255.572 43.4033 255.104 41.2812 255.104 38.9524V22.0859H259.403V38.9524C259.403 40.4682 259.678 41.8599 260.23 43.1277C260.795 44.3816 261.608 45.3876 262.669 46.1454C263.743 46.8896 265.039 47.2616 266.555 47.2616C268.112 47.2616 269.421 46.8896 270.482 46.1454C271.543 45.3876 272.342 44.3816 272.879 43.1277C273.431 41.8599 273.706 40.4682 273.706 38.9524V22.0859H278.006V38.9524C278.006 40.7024 277.737 42.3422 277.199 43.8718C276.662 45.3876 275.89 46.7242 274.884 47.8817C273.878 49.0392 272.673 49.9418 271.267 50.5894C269.862 51.2371 268.291 51.5609 266.555 51.5609Z" fill="white"/>
<path d="M234.789 51.0235V22.0859H239.088V46.7242H251.552V51.0235H234.789Z" fill="white"/>
<path d="M216.2 51.5602C214.243 51.5602 212.403 51.1744 210.681 50.4027C208.958 49.6173 207.443 48.5356 206.133 47.1576C204.824 45.7796 203.798 44.188 203.054 42.3829C202.31 40.564 201.938 38.621 201.938 36.554C201.938 34.4871 202.31 32.551 203.054 30.7459C203.798 28.9269 204.824 27.3285 206.133 25.9505C207.443 24.5725 208.958 23.4977 210.681 22.726C212.403 21.9406 214.243 21.5479 216.2 21.5479C218.17 21.5479 220.017 21.9406 221.739 22.726C223.462 23.4977 224.977 24.5725 226.286 25.9505C227.595 27.3285 228.615 28.9269 229.345 30.7459C230.09 32.551 230.462 34.4871 230.462 36.554C230.462 38.621 230.09 40.564 229.345 42.3829C228.615 44.188 227.595 45.7796 226.286 47.1576C224.977 48.5356 223.462 49.6173 221.739 50.4027C220.017 51.1744 218.17 51.5602 216.2 51.5602ZM216.2 47.2609C217.578 47.2609 218.866 46.9785 220.065 46.4135C221.264 45.8485 222.318 45.0768 223.227 44.0985C224.151 43.1063 224.867 41.9695 225.377 40.688C225.901 39.3927 226.162 38.0147 226.162 36.554C226.162 35.0934 225.901 33.7154 225.377 32.4201C224.867 31.1248 224.151 29.988 223.227 29.0096C222.318 28.0175 221.264 27.2458 220.065 26.6946C218.866 26.1296 217.578 25.8471 216.2 25.8471C214.822 25.8471 213.533 26.1296 212.334 26.6946C211.135 27.2596 210.074 28.0381 209.151 29.0303C208.242 30.0086 207.525 31.1455 207.002 32.4408C206.492 33.7223 206.237 35.0934 206.237 36.554C206.237 38.0285 206.492 39.4133 207.002 40.7086C207.525 41.9902 208.242 43.127 209.151 44.1191C210.074 45.0975 211.135 45.8692 212.334 46.4341C213.533 46.9853 214.822 47.2609 216.2 47.2609Z" fill="white"/>
<path d="M187.435 51.5597C185.85 51.5597 184.327 51.3117 182.867 50.8156C181.406 50.3196 180.131 49.6099 179.043 48.6867C177.954 47.7496 177.176 46.6404 176.707 45.3588L180.738 43.85C180.972 44.5114 181.42 45.1039 182.081 45.6275C182.756 46.1374 183.556 46.537 184.479 46.8264C185.416 47.1158 186.401 47.2605 187.435 47.2605C188.537 47.2605 189.57 47.0813 190.535 46.723C191.513 46.3648 192.299 45.8687 192.891 45.2348C193.498 44.601 193.801 43.8568 193.801 43.0025C193.801 42.1206 193.484 41.3972 192.85 40.8322C192.23 40.2672 191.431 39.8194 190.452 39.4887C189.488 39.1579 188.482 38.9099 187.435 38.7445C185.409 38.4138 183.59 37.9315 181.978 37.2977C180.379 36.6638 179.112 35.775 178.175 34.6313C177.251 33.4876 176.79 31.9993 176.79 30.1666C176.79 28.4442 177.279 26.9422 178.257 25.6606C179.249 24.3791 180.552 23.387 182.164 22.6842C183.79 21.9676 185.547 21.6094 187.435 21.6094C188.992 21.6094 190.494 21.8574 191.941 22.3535C193.401 22.8358 194.683 23.5454 195.785 24.4825C196.901 25.4057 197.701 26.5288 198.183 27.8516L194.111 29.3192C193.877 28.644 193.429 28.0583 192.767 27.5622C192.106 27.0524 191.307 26.6528 190.37 26.3634C189.446 26.074 188.468 25.9293 187.435 25.9293C186.332 25.9156 185.299 26.0947 184.334 26.4668C183.383 26.825 182.605 27.3211 181.998 27.955C181.392 28.5888 181.089 29.3261 181.089 30.1666C181.089 31.2001 181.371 31.9856 181.936 32.523C182.501 33.0604 183.259 33.46 184.21 33.7218C185.175 33.9698 186.25 34.1972 187.435 34.4039C189.336 34.7071 191.093 35.21 192.705 35.9128C194.331 36.6156 195.634 37.5526 196.612 38.7239C197.604 39.8814 198.1 41.3076 198.1 43.0025C198.1 44.7112 197.604 46.2132 196.612 47.5085C195.634 48.79 194.331 49.789 192.705 50.5056C191.093 51.2084 189.336 51.5597 187.435 51.5597Z" fill="white"/>
<path d="M143.838 51.0235V22.0859H161.8V26.3852H148.137V33.3716H159.133V37.6709H148.137V46.7242H161.8V51.0235H143.838Z" fill="white"/>
<path d="M116.213 51.0235V22.0859H120.864L134.154 43.2517V22.0859H138.453V51.0235H133.803L120.512 29.8577V51.0235H116.213Z" fill="white"/>
<path d="M105.924 51.0235V22.0859H110.223V51.0235H105.924Z" fill="white"/>
<path d="M83.5742 51.0235V22.0859H87.8735V46.7242H100.337V51.0235H83.5742Z" fill="white"/>
<path d="M60.4746 51.0235V22.0859H78.4366V26.3852H64.7739V33.3716H75.7702V37.6709H64.7739V46.7242H78.4366V51.0235H60.4746Z" fill="white"/>
<path d="M32.8516 51.0235V22.0859H37.5022L50.7928 43.2517V22.0859H55.0921V51.0235H50.4415L37.1509 29.8577V51.0235H32.8516Z" fill="white"/>
<path d="M14.2621 51.5602C12.3053 51.5602 10.4657 51.1744 8.74327 50.4027C7.0208 49.6173 5.50503 48.5356 4.19595 47.1576C2.88687 45.7796 1.86027 44.188 1.11616 42.3829C0.372054 40.564 0 38.621 0 36.554C0 34.4871 0.372054 32.551 1.11616 30.7459C1.86027 28.9269 2.88687 27.3285 4.19595 25.9505C5.50503 24.5725 7.0208 23.4977 8.74327 22.726C10.4657 21.9406 12.3053 21.5479 14.2621 21.5479C16.2326 21.5479 18.0791 21.9406 19.8016 22.726C21.524 23.4977 23.0398 24.5725 24.3489 25.9505C25.658 27.3285 26.6777 28.9269 27.408 30.7459C28.1521 32.551 28.5242 34.4871 28.5242 36.554C28.5242 38.621 28.1521 40.564 27.408 42.3829C26.6777 44.188 25.658 45.7796 24.3489 47.1576C23.0398 48.5356 21.524 49.6173 19.8016 50.4027C18.0791 51.1744 16.2326 51.5602 14.2621 51.5602ZM14.2621 47.2609C15.6401 47.2609 16.9285 46.9785 18.1273 46.4135C19.3262 45.8485 20.3803 45.0768 21.2898 44.0985C22.213 43.1063 22.9296 41.9695 23.4394 40.688C23.9631 39.3927 24.2249 38.0147 24.2249 36.554C24.2249 35.0934 23.9631 33.7154 23.4394 32.4201C22.9296 31.1248 22.213 29.988 21.2898 29.0096C20.3803 28.0175 19.3262 27.2458 18.1273 26.6946C16.9285 26.1296 15.6401 25.8471 14.2621 25.8471C12.8841 25.8471 11.5957 26.1296 10.3968 26.6946C9.19801 27.2596 8.13696 28.0381 7.21372 29.0303C6.30425 30.0086 5.5877 31.1455 5.06407 32.4408C4.55422 33.7223 4.29929 35.0934 4.29929 36.554C4.29929 38.0285 4.55422 39.4133 5.06407 40.7086C5.5877 41.9902 6.30425 43.127 7.21372 44.1191C8.13696 45.0975 9.19801 45.8692 10.3968 46.4341C11.5957 46.9853 12.8841 47.2609 14.2621 47.2609Z" fill="white"/>
</g>
<defs>
<clipPath id="clip0_3402_38880">
<rect width="375" height="105" fill="white"/>
</clipPath>
</defs>
</svg>
