<svg width="24" height="24" viewBox="0 0 24 24" fill="none" xmlns="http://www.w3.org/2000/svg">
<path d="M19.0222 2.34424H4.97819C3.87019 2.34424 2.97119 3.24224 2.97119 4.35124V19.6492C2.97119 20.7572 3.86919 21.6562 4.97819 21.6562H13.9282V16.9882C13.9282 15.6462 15.0202 14.5542 16.3622 14.5542H21.0302V4.35124C21.0302 3.24324 20.1322 2.34424 19.0232 2.34424H19.0222ZM7.47119 9.34424C6.64319 9.34424 5.97119 8.67224 5.97119 7.84424C5.97119 7.01624 6.64319 6.34424 7.47119 6.34424C8.29919 6.34424 8.97119 7.01624 8.97119 7.84424C8.97119 8.67224 8.29919 9.34424 7.47119 9.34424Z" fill="#3182F6"/>
<path fill-rule="evenodd" clip-rule="evenodd" d="M16.3612 16.0542H21.0292L15.4272 21.6562V16.9882C15.4272 16.4722 15.8452 16.0542 16.3612 16.0542Z" fill="#3182F6"/>
</svg>
