<svg width="24" height="24" viewBox="0 0 24 24" fill="none" xmlns="http://www.w3.org/2000/svg">
<path fill-rule="evenodd" clip-rule="evenodd" d="M9.48395 20.7274L3.27295 14.5174L12.9709 4.81836L19.1809 11.0294L9.48395 20.7274Z" fill="#FFB131"/>
<path fill-rule="evenodd" clip-rule="evenodd" d="M22.2932 7.91824L19.1832 11.0302L12.9722 4.81824L16.0832 1.70824C16.176 1.61529 16.2862 1.54156 16.4075 1.49125C16.5288 1.44094 16.6588 1.41504 16.7902 1.41504C16.9215 1.41504 17.0515 1.44094 17.1729 1.49125C17.2942 1.54156 17.4044 1.61529 17.4972 1.70824L22.2932 6.50324C22.3863 6.59605 22.4601 6.70631 22.5105 6.82772C22.5609 6.94913 22.5869 7.07929 22.5869 7.21074C22.5869 7.34219 22.5609 7.47235 22.5105 7.59376C22.4601 7.71517 22.3863 7.82543 22.2932 7.91824Z" fill="#FA8700"/>
<path fill-rule="evenodd" clip-rule="evenodd" d="M1 23.0004L4.872 21.9624L2.037 19.1274L1 23.0004Z" fill="#4E5968"/>
<path fill-rule="evenodd" clip-rule="evenodd" d="M2.03711 19.1271L4.87211 21.9621L9.48411 20.7261L3.27411 14.5161L2.03711 19.1271Z" fill="#FFDFAF"/>
</svg>
