<svg xmlns="http://www.w3.org/2000/svg" width="702px" height="134px" viewBox="0 0 702 134"><g fill="none" fill-rule="evenodd"><path fill="#2D3441" fill-rule="nonzero" d="m236.145 101 4.015-12.98h25.465L269.64 101h18.535L264.69 27.19h-22.385L217.445 101zm25.465-26.015h-16.995l8.635-27.005zM317.05 101V25.1h-17.6V101zm36.3 26.29-.001-28.571.055.05q.828.765 1.773 1.373l.318.198q4.015 2.42 10.01 2.42 6.875 0 12.897-3.41t9.736-9.845 3.712-15.565q0-9.185-3.658-15.62t-9.487-9.845-12.32-3.41q-4.894 0-9.24 2.503-3.129 1.801-5.387 5.186l-.217.332-1.436-6.261H335.75v80.465zm9.35-40.59q-2.53 0-4.675-.935t-3.41-2.585-1.265-3.85h-.001v-8.91l.007-.378q.071-2.436 1.072-4.314l.16-.285a8.45 8.45 0 0 1 3.437-3.273q2.2-1.155 5.005-1.155 3.466 0 5.968 1.595t3.877 4.51 1.375 6.82q0 4.62-1.842 7.425t-4.51 4.07T362.7 86.7m53.625-46.86q4.84 0 7.645-2.558 2.805-2.556 2.805-7.232 0-4.564-2.805-7.288-2.805-2.721-7.645-2.722-5.005 0-7.727 2.723t-2.723 7.287q0 4.676 2.723 7.232 2.722 2.559 7.727 2.558m8.8 61.16V46.495h-17.6V101zm37.84 0V78.175l.003-.56q.063-5.55 1.375-9.075l.135-.348q1.512-3.766 4.042-5.472 2.53-1.705 5.555-1.705 2.97 0 5.06 2.063 2.09 2.061 2.09 6.352V101h17.71V69.43q0-7.095-2.09-12.595t-6.518-8.635-11.412-3.135q-6.105 0-10.918 3.41-2.985 2.117-5.19 5.738l-.151.253-1.781-7.641h-15.51V101zm74.855 1.76q6.71 0 11.852-2.42 5.144-2.42 8.36-6.545 3.218-4.125 4.043-9.185h-17.49q-.715 2.145-2.53 3.135t-4.235.99q-2.97 0-4.923-1.403-1.952-1.401-2.942-3.932t-.99-5.995l.001.11h32.559q1.303-5.836.507-11.35l-.095-.613q-.962-5.802-4.07-10.422-3.107-4.62-8.167-7.343t-11.88-2.722q-6.875 0-12.87 3.41t-9.68 9.817-3.685 15.373 3.713 15.51 9.707 10.065 12.815 3.52m8.359-34.155h-17.135l.001-.015q.2-2.256.902-4.011l.145-.346q1.129-2.558 3.19-3.906 2.063-1.347 4.868-1.347 2.53 0 4.153 1.018a6.93 6.93 0 0 1 2.502 2.695q.88 1.677 1.183 3.657.15.99.185 1.966zm34.596 33.385q5.225 0 8.635-3.162t3.41-8.058-3.41-8.14-8.635-3.245-8.497 3.245-3.273 8.14q0 4.84 3.273 8.03 3.272 3.19 8.497 3.19m33.605-62.15q4.84 0 7.645-2.558 2.805-2.556 2.805-7.232 0-4.564-2.805-7.288-2.805-2.721-7.645-2.722t-7.7 2.723q-2.86 2.722-2.86 7.287 0 4.676 2.86 7.232 2.86 2.559 7.7 2.558m-10.505 89.375q9.625 0 14.575-5.252 4.95-5.253 4.95-17.738v-59.62h-17.71v59.29q0 4.73-1.678 6.325t-5.087 1.595q-2.64 0-5.72-.77t-5.445-1.705v15.125q3.795 1.046 7.535 1.898t8.58.852m60.665-26.455q6.82 0 12.21-2.53t8.497-6.573q3.108-4.041 3.108-8.552 0-4.95-3.19-8.25t-8.745-5.5l-14.96-5.995q-3.465-1.21-3.465-3.3 0-1.54 1.65-2.475t4.51-.935q3.465 0 4.95 1.293t1.485 3.052h16.115q-.055-7.81-5.885-12.87t-16.665-5.06q-11.55 0-18.205 4.455t-6.655 11.66q0 5.115 3.163 8.827 3.162 3.713 8.992 6.133l13.145 5.115q2.09.825 3.08 1.65t.99 2.2q0 1.045-.715 1.953-.716.906-2.145 1.457-1.43.55-3.63.55-3.63 0-5.747-1.1t-2.228-3.96h-15.895q-.056 6.326 3.273 10.478 3.327 4.152 9.267 6.215t13.695 2.062"/><path fill="#77C1D2" d="M149.52 22.303 189.392 62l-39.872 39.697L109.648 62z"/><path fill="#2D3441" d="M49.84 22.303 132.5 104.6H52.756L9.968 62z"/></g></svg>
