<svg xmlns="http://www.w3.org/2000/svg" width="174" height="48" fill="none" viewBox="0 0 174 48"><defs><radialGradient id="a" cx="0" cy="0" r="1" gradientTransform="matrix(-48 0 0 -48 48 0)" gradientUnits="userSpaceOnUse"><stop stop-color="#E44857"/><stop offset=".504494" stop-color="#C711E1"/><stop offset="1" stop-color="#7F52FF"/></radialGradient></defs><path fill="#000" d="M91.97 9.01h-6.4L73.2 22.6V9.01H68v29.96h5.2v-14.3l12.46 14.3h6.59L78.81 23.45 91.97 9zm17.38 9.04c-1.75-1-3.71-1.5-5.86-1.5s-4.13.5-5.9 1.5c-1.76 1-3.14 2.37-4.14 4.12q-1.5 2.625-1.5 5.85c0 2.15.5 4.11 1.51 5.85a11 11 0 0 0 4.14 4.12c1.75 1 3.71 1.5 5.86 1.5s4.13-.5 5.89-1.5c1.75-1 3.14-2.37 4.14-4.12 1.01-1.75 1.51-3.7 1.51-5.85s-.5-4.11-1.51-5.85a11.06 11.06 0 0 0-4.14-4.12m-.39 13.59c-.52 1.06-1.26 1.88-2.21 2.46-.96.58-2.05.88-3.27.88s-2.32-.29-3.26-.88-1.68-1.41-2.2-2.46c-.52-1.06-.78-2.26-.78-3.62s.26-2.58.78-3.64 1.26-1.88 2.2-2.46 2.04-.88 3.26-.88 2.31.3 3.26.89 1.69 1.41 2.21 2.46.79 2.26.79 3.63-.26 2.56-.78 3.62m15.88-19.93h-4.71v3.55c0 .53-.16.96-.49 1.29-.33.34-.76.5-1.31.5h-2.4l-.02 4.39h3.85l.02 11.71q0 1.665.78 3c.52.88 1.25 1.58 2.18 2.08s1.99.75 3.16.75h4.73v-4.39h-3.72c-.6 0-1.1-.2-1.49-.59s-.59-.89-.59-1.49l-.02-11.06h5.82l.02-4.39h-5.82v-5.35zm8.92 27.27h5.05V9.02h-5.05zm9.59-24.23h5.76V9.74h-5.76zm.37 24.23h5.05V17.06h-5.05zm28.58-18.43q-.99-1.95-2.76-2.97c-1.18-.68-2.56-1.03-4.13-1.03-1.68 0-3.15.39-4.4 1.18-1.01.63-1.82 1.49-2.45 2.55v-3.21h-4.9v21.92h5.05V26.3c0-1.03.21-1.94.63-2.75a4.57 4.57 0 0 1 1.79-1.88c.77-.45 1.65-.67 2.65-.67.93 0 1.73.2 2.4.59s1.18.96 1.54 1.7q.54 1.11.54 2.7V39h5.03V25.22c0-1.8-.33-3.35-.98-4.64z"/><path fill="url(#a)" d="M48 48H0V0h48L23.505 23.648z"/></svg>
