<svg width="398" height="398" viewBox="0 0 398 398" fill="none" xmlns="http://www.w3.org/2000/svg">
<path d="M276.174 207.944C276.578 251.295 314.54 265.723 314.957 265.91C314.634 266.923 308.89 286.471 294.954 306.66C282.914 324.115 270.403 341.503 250.709 341.863C231.351 342.223 225.136 330.489 203.007 330.489C180.877 330.489 173.976 341.503 155.654 342.223C136.646 342.943 122.171 323.355 110.024 305.966C85.2175 270.377 66.2496 205.451 91.715 161.607C104.36 139.845 126.974 126.057 151.511 125.697C170.183 125.351 187.792 138.152 199.213 138.152C210.634 138.152 232.023 122.75 254.543 125.017C263.959 125.404 290.42 128.791 307.397 153.433C306.038 154.273 275.838 171.701 276.174 207.944ZM239.799 101.495C249.888 89.3874 256.682 72.5326 254.825 55.7578C240.283 56.3312 222.687 65.372 212.248 77.4664C202.899 88.1873 194.706 105.335 196.913 121.777C213.136 123.017 229.71 113.603 239.799 101.495Z" fill="white"/>
</svg>
