<svg width="398" height="398" viewBox="0 0 398 398" fill="none" xmlns="http://www.w3.org/2000/svg">
<g clip-path="url(#clip0_3415_39204)">
<path d="M270.019 165.69C270.019 175.894 270.385 186.036 269.897 196.24C269.408 207.849 272.952 217.809 280.283 226.607C281.139 227.645 281.934 228.684 282.666 229.784C285.294 233.756 284.805 236.505 281.2 239.56C273.501 246.037 265.863 252.574 258.165 259.051C253.583 262.901 250.711 262.84 246.067 259.051C239.835 253.98 234.947 247.748 230.609 241.088C229.571 239.499 229.021 239.56 227.738 240.782C220.038 248.297 211.912 255.263 201.587 258.746C185.639 264.184 169.448 265.039 153.44 259.357C138.042 253.858 128.816 242.493 125.394 226.668C121.606 209.01 123.561 192.207 134.437 177.238C142.686 165.934 154.111 159.274 167.248 155.181C180.812 151.026 194.804 149.437 208.857 148.032C212.828 147.604 216.739 147.238 220.71 146.871C221.687 146.81 222.543 146.688 222.482 145.405C222.36 138.928 223.032 132.329 221.504 125.975C219.549 117.849 214.233 113.083 206.107 111.311C200.303 110.028 194.559 110.394 188.938 112.288C180.384 115.221 175.068 121.148 172.93 129.946C171.769 134.773 169.508 136.484 164.803 135.995C154.783 134.956 144.762 133.917 134.803 132.879C130.709 132.451 128.571 129.335 129.426 125.363C134.62 100.007 151.239 85.7701 175.191 79.2323C193.582 74.2224 212.218 73.9167 230.67 79.1101C245.517 83.2649 257.982 90.5971 264.947 105.139C268.919 113.387 269.835 122.308 269.957 131.229C270.08 142.655 269.957 154.203 270.019 165.69ZM222.482 184.753C222.482 181.698 222.361 178.643 222.544 175.588C222.666 173.694 221.994 173.022 220.1 173.205C215.456 173.632 210.752 173.694 206.108 174.305C197.982 175.343 190.038 177.36 183.439 182.492C173.846 190.008 171.83 200.272 173.418 211.82C175.313 225.384 187.411 232.9 200.364 228.378C209.162 225.323 214.539 218.847 218.266 210.72C222.177 202.473 222.482 193.613 222.482 184.753Z" fill="#050606"/>
<path d="M199.876 322.656C153.257 322.351 111.403 310.376 73.5816 285.141C65.8829 280.008 58.5507 274.387 51.5855 268.216C50.9747 267.666 50.3633 267.117 49.8747 266.444C49.2025 265.527 48.7138 264.428 49.5082 263.328C50.3025 262.106 51.6469 261.984 52.8077 262.534C55.496 263.817 58.0625 265.222 60.6894 266.566C84.7633 279.275 110.12 288.44 136.698 294.244C160.772 299.499 185.089 301.943 209.774 301.271C245.029 300.293 279.001 293.206 311.69 280.069C313.278 279.397 314.928 278.725 316.578 278.358C318.9 277.93 321.222 278.236 322.261 280.741C323.238 283.062 321.955 284.896 320.244 286.362C319.022 287.4 317.617 288.256 316.211 289.172C295.132 302.859 272.036 311.657 247.596 317.095C231.465 320.763 215.09 322.534 199.876 322.656Z" fill="#F6A61F"/>
<path d="M317.494 268.216C310.468 268.155 303.502 269.071 296.537 269.804C295.192 269.927 293.665 270.293 293.054 268.827C292.321 267.177 293.726 266.2 294.887 265.405C303.564 259.662 313.278 257.401 323.482 256.851C330.509 256.424 337.474 256.73 344.318 258.807C347.434 259.723 348.961 261.556 348.9 264.734C348.534 281.719 342.851 296.506 330.57 308.543C330.142 308.97 329.654 309.337 329.165 309.704C328.066 310.498 326.721 311.231 325.56 310.254C324.46 309.337 325.071 307.993 325.56 306.893C329.165 297.911 332.831 288.991 334.602 279.398C334.847 278.176 334.908 276.954 334.969 275.793C335.03 271.821 333.625 270.111 329.715 269.133C325.621 268.033 321.527 268.216 317.494 268.216Z" fill="#F6A61F"/>
</g>
<defs>
<clipPath id="clip0_3415_39204">
<rect width="299.804" height="247.313" fill="white" transform="translate(49.0977 75.3438)"/>
</clipPath>
</defs>
</svg>
