<svg width="398" height="398" viewBox="0 0 398 398" fill="none" xmlns="http://www.w3.org/2000/svg">
<path d="M78.3163 298.832L118.982 45.5428C120.071 38.7623 129.092 37.1421 132.472 43.1202L215.126 189.31C215.868 190.622 216.183 192.132 216.028 193.632L198.854 359.45C198.318 364.626 192.67 367.575 188.116 365.056L81.9709 306.337C79.2928 304.856 77.8312 301.854 78.3163 298.832Z" fill="#FFA713"/>
<path d="M81.1687 297.513L192.43 84.3506C195.172 79.0977 202.712 79.1633 205.362 84.4631L253.324 180.386C254.167 182.072 254.322 184.019 253.755 185.817L201.471 351.678C200.161 355.836 195.509 357.909 191.541 356.105L84.6004 307.483C80.8087 305.759 79.2414 301.205 81.1687 297.513Z" fill="#FFA40E"/>
<path d="M78.3163 298.832L118.982 45.5428C120.071 38.7623 129.092 37.1421 132.472 43.1202L215.126 189.31C215.868 190.622 216.183 192.132 216.028 193.632L198.854 359.45C198.318 364.626 192.67 367.575 188.116 365.056L81.9709 306.337C79.2928 304.856 77.8312 301.854 78.3163 298.832Z" fill="#FFA713"/>
<path d="M81.1687 297.513L192.43 84.3506C195.172 79.0977 202.712 79.1633 205.362 84.4631L253.324 180.386C254.167 182.072 254.322 184.019 253.755 185.817L201.471 351.678C200.161 355.836 195.509 357.909 191.541 356.105L84.6004 307.483C80.8087 305.759 79.2414 301.205 81.1687 297.513Z" fill="#FFA40E"/>
<path d="M213.808 189.31C214.55 190.622 214.866 192.132 214.711 193.631L198 354.968C195.935 356.764 192.922 357.332 190.224 356.105L83.2831 307.483C79.4914 305.759 77.9241 301.205 79.8515 297.512L173.52 118.053L213.808 189.31Z" fill="#F5820C"/>
<path d="M274.783 107.22L84.3958 297.373C81.0101 300.755 81.7639 306.43 85.9148 308.81L194.161 370.885C196.371 372.153 199.083 372.169 201.308 370.929L315.998 307.014C318.692 305.513 320.143 302.474 319.618 299.435L287.069 111.121C286.067 105.322 278.946 103.061 274.783 107.22Z" fill="#FFCA2C"/>
</svg>
