<svg width="398" height="398" viewBox="0 0 398 398" fill="none" xmlns="http://www.w3.org/2000/svg">
<path d="M74.3418 160.461H173.716V362.197L74.3418 285.12V160.461Z" fill="#FC6B2C"/>
<path d="M199 35.8032C267.847 35.8032 323.658 91.6146 323.658 160.461C323.658 229.308 267.847 285.12 199 285.12C130.153 285.12 74.3418 229.308 74.3418 160.461C74.3418 91.6146 130.153 35.8032 199 35.8032ZM198.639 135.539C184.874 135.539 173.716 146.697 173.716 160.461C173.716 174.226 184.874 185.384 198.639 185.384C212.403 185.384 223.562 174.226 223.562 160.461C223.562 146.697 212.403 135.539 198.639 135.539Z" fill="url(#paint0_linear_3415_39157)"/>
<defs>
<linearGradient id="paint0_linear_3415_39157" x1="179.613" y1="160.461" x2="269.917" y2="244.704" gradientUnits="userSpaceOnUse">
<stop stop-color="#FD6A2C"/>
<stop offset="0.671155" stop-color="#FD6A2C" stop-opacity="0.2"/>
</linearGradient>
</defs>
</svg>
